<?xml version="1.0" standalone="no"?>
<!DOCTYPE svg PUBLIC "-//W3C//DTD SVG 20010904//EN"
 "http://www.w3.org/TR/2001/REC-SVG-20010904/DTD/svg10.dtd">
<svg version="1.0" xmlns="http://www.w3.org/2000/svg"
 width="925.000000pt" height="344.000000pt" viewBox="0 0 925.000000 344.000000"
 preserveAspectRatio="xMidYMid meet">

<g transform="translate(0.000000,344.000000) scale(0.100000,-0.100000)"
fill="#000000" stroke="none">
<path d="M780 2668 c0 -183 -42 -356 -200 -828 -163 -485 -191 -605 -210 -878
-5 -85 -7 -205 -3 -269 6 -104 8 -116 27 -123 67 -27 1175 -200 1282 -200 l35
0 -8 68 c-13 114 -7 369 11 487 10 61 33 175 52 254 19 79 34 149 34 155 0 7
-39 20 -92 30 -101 20 -267 62 -274 69 -2 2 25 64 60 138 80 169 149 356 192
525 36 145 67 335 62 385 -3 31 -5 33 -88 55 -47 12 -152 45 -235 73 -220 74
-485 131 -609 131 l-36 0 0 -72z"/>
<path d="M3481 2390 c-264 -37 -493 -193 -596 -405 -88 -182 -86 -401 7 -578
39 -76 169 -208 250 -256 80 -46 207 -88 313 -102 199 -26 507 28 552 97 20
32 53 166 53 221 0 73 -41 64 -88 -20 -67 -119 -168 -189 -303 -210 -202 -31
-381 68 -478 265 -68 137 -94 319 -67 468 53 294 283 473 554 432 150 -24 229
-85 277 -217 19 -50 33 -75 46 -78 33 -9 48 17 43 75 -2 29 -6 89 -10 132 -8
106 -18 116 -164 150 -125 31 -283 41 -389 26z"/>
<path d="M6381 2024 c-81 -71 -156 -127 -198 -148 -46 -23 -44 -86 2 -86 13 0
35 -4 49 -9 l25 -10 3 -283 c3 -269 4 -285 25 -324 66 -124 216 -157 374 -83
72 34 119 74 119 100 0 27 -14 30 -51 12 -19 -10 -61 -19 -94 -21 -50 -3 -65
0 -88 18 -57 45 -61 65 -65 310 -2 144 0 235 7 253 l11 27 129 0 129 0 12 31
c9 21 10 39 4 57 l-9 27 -140 5 -140 5 0 85 c0 77 -2 85 -20 88 -13 1 -44 -18
-84 -54z"/>
<path d="M5335 1923 c-27 -15 -93 -41 -145 -59 -83 -28 -95 -35 -98 -57 -2
-19 4 -27 28 -37 17 -7 36 -22 43 -34 13 -23 24 -482 12 -543 -6 -31 -13 -38
-66 -61 -57 -24 -72 -43 -48 -58 9 -5 366 -9 437 -5 6 1 12 10 12 21 0 15 -13
26 -47 41 -26 11 -51 26 -55 32 -4 7 -8 132 -8 279 l0 267 29 21 c73 51 173
64 229 30 64 -39 72 -74 72 -346 0 -267 2 -261 -68 -285 -36 -12 -59 -43 -41
-55 15 -9 433 -9 447 0 21 13 -1 38 -54 61 -30 13 -55 25 -56 27 -1 2 -4 134
-7 293 -6 273 -7 292 -28 331 -28 52 -90 108 -138 124 -90 30 -237 -8 -331
-85 -23 -19 -44 -32 -46 -29 -3 2 -3 38 0 79 5 87 4 88 -73 48z"/>
<path d="M7925 1914 c-38 -18 -101 -43 -140 -56 -38 -12 -75 -28 -82 -36 -16
-19 -6 -41 23 -52 13 -5 31 -21 41 -37 16 -24 18 -56 21 -267 2 -133 1 -256
-3 -274 -5 -29 -14 -37 -60 -57 -59 -27 -68 -35 -55 -54 11 -18 464 -21 482
-3 17 17 -5 38 -59 56 -86 29 -83 19 -82 275 0 253 6 283 58 318 43 29 67 29
144 -2 35 -15 72 -23 84 -20 36 9 75 70 81 124 4 43 1 50 -23 69 -21 16 -42
22 -82 22 -68 0 -119 -25 -193 -96 -31 -30 -59 -54 -61 -54 -3 0 -3 41 -1 90
4 72 2 90 -9 89 -8 0 -45 -16 -84 -35z"/>
<path d="M4528 1896 c-111 -39 -238 -127 -278 -191 -24 -38 -26 -90 -5 -98 19
-8 101 17 143 43 29 18 32 24 32 68 0 62 21 83 90 90 62 6 95 -14 109 -63 12
-43 2 -222 -13 -233 -6 -5 -71 -35 -144 -67 -201 -88 -242 -126 -242 -225 0
-103 108 -191 216 -176 50 6 127 43 173 81 l31 27 44 -45 c74 -77 163 -85 252
-24 55 38 84 81 67 98 -9 9 -20 8 -46 -5 -45 -21 -60 -20 -88 3 l-24 19 0 289
0 289 -30 49 c-58 93 -155 117 -287 71z m87 -579 c0 -90 -2 -98 -26 -122 -38
-38 -88 -43 -124 -12 -25 21 -29 31 -29 76 0 64 23 96 94 134 81 42 85 39 85
-76z"/>
<path d="M7153 1906 c-96 -31 -207 -125 -252 -214 -115 -225 -29 -524 177
-620 48 -23 71 -27 147 -27 80 0 97 4 156 31 36 17 83 48 104 69 60 61 100
165 63 165 -6 0 -32 -16 -59 -36 -51 -37 -122 -64 -169 -64 -96 0 -209 77
-248 168 -30 71 -38 147 -18 177 l16 25 223 0 c264 0 267 1 267 83 -1 96 -53
177 -145 225 -61 31 -193 40 -262 18z m151 -70 c46 -19 76 -65 76 -115 0 -55
-17 -61 -176 -61 -102 0 -126 3 -130 15 -16 41 33 119 95 152 51 26 87 29 135
9z"/>
<path d="M8768 1896 c-111 -39 -238 -127 -278 -191 -24 -38 -26 -90 -5 -98 19
-8 101 17 143 43 29 18 32 24 32 68 0 63 21 84 95 90 48 4 56 2 78 -22 14 -15
27 -39 30 -54 8 -42 -5 -211 -17 -220 -6 -5 -71 -35 -144 -67 -201 -88 -242
-126 -242 -225 0 -103 108 -191 216 -176 50 6 127 43 173 81 l31 27 44 -45
c74 -77 163 -85 252 -24 55 38 84 81 67 98 -9 9 -20 8 -46 -5 -45 -21 -60 -20
-88 3 l-24 19 0 289 0 289 -30 49 c-58 93 -155 117 -287 71z m87 -579 c0 -90
-2 -98 -26 -122 -38 -38 -88 -43 -124 -12 -25 21 -29 31 -29 76 0 64 23 96 94
134 81 42 85 39 85 -76z"/>
<path d="M185 388 c8 -49 72 -306 80 -317 2 -5 132 -11 287 -14 156 -3 411
-15 568 -26 426 -29 604 -34 810 -21 102 6 208 14 236 18 l51 7 -41 112 -41
113 -155 0 c-279 0 -577 26 -925 81 -421 66 -628 89 -808 89 l-69 0 7 -42z"/>
</g>
</svg>
