<?xml version="1.0" standalone="no"?>
<!DOCTYPE svg PUBLIC "-//W3C//DTD SVG 20010904//EN"
 "http://www.w3.org/TR/2001/REC-SVG-20010904/DTD/svg10.dtd">
<svg version="1.0" xmlns="http://www.w3.org/2000/svg"
 width="1280.000000pt" height="462.000000pt" viewBox="0 0 1280.000000 462.000000"
 preserveAspectRatio="xMidYMid meet">

<g transform="translate(0.000000,462.000000) scale(0.100000,-0.100000)"
fill="#000000" stroke="none">
<path d="M1695 4599 c-290 -52 -517 -170 -725 -379 -202 -201 -317 -418 -376
-705 -26 -128 -24 -365 4 -495 42 -193 101 -334 209 -499 66 -102 236 -274
340 -345 40 -27 70 -53 67 -58 -3 -4 -185 -8 -404 -8 l-398 0 -68 -117 c-37
-65 -130 -226 -207 -358 -109 -187 -137 -243 -128 -255 5 -8 24 -40 42 -70 17
-30 106 -184 197 -342 l167 -288 418 0 c229 0 417 3 417 8 0 4 90 162 200 352
110 189 200 350 200 356 0 11 -136 250 -331 584 -37 63 -63 116 -59 118 5 2
39 -12 77 -31 274 -136 618 -170 913 -91 240 65 435 177 611 353 410 409 512
1011 259 1536 -126 263 -360 495 -620 617 -149 70 -217 91 -376 118 -145 25
-284 24 -429 -1z"/>
<path d="M10780 3575 c-90 -53 -168 -101 -172 -108 -4 -7 -7 -619 -5 -1362 l2
-1350 175 0 175 0 6 450 c7 487 11 524 65 646 94 208 359 254 509 87 81 -90
79 -75 83 -666 l3 -522 177 2 177 3 3 445 c4 611 -10 765 -80 904 -29 56 -112
141 -177 180 -97 58 -172 78 -291 78 -125 0 -206 -22 -296 -80 -55 -36 -154
-135 -154 -155 0 -4 -4 -5 -10 -2 -7 4 -10 273 -10 776 0 423 -4 769 -8 769
-4 0 -82 -43 -172 -95z"/>
<path d="M8407 3276 c-155 -56 -200 -267 -80 -377 47 -45 91 -61 160 -61 53 0
72 4 111 29 128 79 149 251 43 353 -68 66 -150 86 -234 56z"/>
<path d="M12499 3276 c-241 -86 -178 -441 78 -440 51 0 70 6 110 30 99 61 141
191 93 288 -52 108 -173 161 -281 122z"/>
<path d="M5423 2819 l-173 -101 0 -199 0 -199 -85 0 -85 0 0 -130 0 -130 85 0
85 0 0 -479 c0 -281 4 -500 10 -532 23 -119 106 -231 210 -281 72 -35 168 -49
310 -46 l115 3 3 126 3 126 -101 5 c-113 6 -142 19 -172 79 -16 31 -18 77 -18
517 l0 482 145 0 145 0 0 130 0 129 -142 3 -143 3 -3 298 c-1 163 -6 297 -10
297 -4 0 -85 -46 -179 -101z"/>
<path d="M9730 2360 c-120 -13 -247 -62 -343 -131 -445 -319 -469 -986 -50
-1334 223 -185 539 -227 798 -106 44 21 90 47 103 57 l22 19 -66 115 c-37 63
-68 116 -69 118 -1 1 -28 -10 -61 -25 -54 -26 -69 -28 -184 -28 l-125 0 -77
39 c-57 28 -94 56 -138 103 -99 106 -140 209 -140 354 0 282 214 509 480 509
66 0 151 -21 212 -51 21 -11 41 -19 46 -19 10 0 132 209 132 226 0 28 -146
105 -252 133 -87 23 -199 31 -288 21z"/>
<path d="M6815 2341 c-279 -71 -494 -296 -565 -593 -28 -118 -28 -313 1 -428
108 -427 470 -667 880 -585 97 19 251 88 314 140 24 19 45 31 49 28 3 -4 6
-39 6 -80 l0 -73 178 2 177 3 0 780 0 780 -177 3 -178 2 0 -65 c0 -36 -4 -65
-8 -65 -4 0 -26 13 -48 29 -166 122 -427 173 -629 122z m367 -306 c135 -36
239 -108 293 -207 l30 -53 0 -235 c0 -220 -1 -238 -22 -282 -65 -142 -209
-218 -410 -218 -193 0 -341 90 -433 261 -33 62 -60 174 -60 247 1 118 53 251
133 339 126 138 297 192 469 148z"/>
<path d="M8307 2313 c-10 -9 -8 -1536 1 -1551 7 -9 49 -12 178 -10 l169 3 3
783 2 782 -173 0 c-96 0 -177 -3 -180 -7z"/>
<path d="M12390 1540 l0 -780 23 -5 c12 -3 92 -4 177 -3 l155 3 3 783 2 782
-180 0 -180 0 0 -780z"/>
<path d="M3173 1281 c-104 -27 -210 -128 -239 -228 -23 -80 -15 -182 19 -250
69 -134 226 -214 361 -184 152 34 249 133 276 284 26 138 -63 300 -197 359
-49 22 -169 32 -220 19z"/>
<path d="M1155 518 c-49 -84 -136 -234 -192 -333 l-103 -180 195 -3 c107 -1
283 -1 390 0 l195 3 -143 245 c-78 135 -165 284 -192 333 -26 48 -51 87 -55
87 -3 0 -46 -69 -95 -152z"/>
</g>
</svg>
